<?xml version="1.0" encoding="utf-8"?>
<!-- Generator: Adobe Illustrator 22.1.0, SVG Export Plug-In . SVG Version: 6.00 Build 0)  -->
<svg version="1.1" id="Layer_1" xmlns="http://www.w3.org/2000/svg" xmlns:xlink="http://www.w3.org/1999/xlink" x="0px" y="0px"
	 viewBox="0 0 125 40" style="enable-background:new 0 0 125 40;" xml:space="preserve">
<style type="text/css">
	.st0{fill:#FFFFFF;}
	.st1{fill:#0075BE;}
	.st2{fill:#49BBC5;}
</style>
<g>
	<path class="st0" d="M40.3,61.6c-2.1-2.2-4.7-3.3-7.7-3.4c-3.1-0.1-5.9,1-8.1,3.2c-2.2,2.2-3.3,4.9-3.3,8c0,3,1.1,5.6,3.1,7.7
		c2,2.1,4.6,3.3,7.6,3.4c0.1,0,0.3,0,0.4,0c2.6,0,5-0.9,6.9-2.6v2.6h4.1V69.3C43.4,66.3,42.4,63.7,40.3,61.6z M39.2,69.1
		c0,2-0.6,3.8-2.1,5.2c-1.3,1.4-2.9,2.1-4.7,2.1c-0.1,0-0.2,0-0.3,0c-1.9-0.1-3.4-0.8-4.8-2.2c-1.3-1.4-1.9-3.1-1.9-5
		c0-1.9,0.7-3.6,2.1-4.9c1.4-1.4,3-2,5-2c1.9,0,3.4,0.7,4.7,2C38.4,65.6,39.1,67.2,39.2,69.1z"/>
	<path class="st0" d="M60.9,60.9c-1.7-1.9-3.9-2.8-6.5-2.8c-2.6,0-4.8,1-6.6,2.8c-1.7,1.8-2.6,4.2-2.6,7v12.6h4V67.6
		c0-1.5,0.5-2.8,1.6-3.8c1-1.1,2.3-1.6,3.7-1.6c1.4,0,2.6,0.5,3.6,1.6c1.1,1.1,1.6,2.4,1.6,3.8v12.9h4V67.9
		C63.5,65.1,62.7,62.8,60.9,60.9z"/>
	<g>
		<path class="st0" d="M12.9,67.5c-5.5-1.3-6.5-1.7-6.5-3.3c0-1.8,1.8-2.5,3.3-2.5c1.5,0,3.7,0.1,4.3,2.6h4.6
			c-0.4-4.5-4.4-6.3-8.7-6.3c-3.9,0-8.2,2.1-8.2,6.6c0,8.1,13,5.1,13,9.8c0,2.2-2.6,2.7-4.3,2.7c-1.8,0-4.3-0.4-4.9-3.2H1
			c0.4,4.8,4.6,6.9,9.3,6.9c6,0,9.1-3,9.1-7C19.4,68.9,14.6,67.9,12.9,67.5z"/>
	</g>
	<g>
		<path class="st0" d="M117.7,67.5c-5.5-1.3-6.5-1.7-6.5-3.3c0-1.8,1.8-2.5,3.3-2.5c1.5,0,3.7,0.1,4.3,2.6h4.6
			c-0.4-4.5-4.4-6.3-8.7-6.3c-4,0-8.2,2.1-8.2,6.6c0,8.1,13,5.1,13,9.8c0,2.2-2.6,2.7-4.3,2.7c-1.8,0-4.3-0.4-4.8-3.2h-4.6
			c0.4,4.8,4.6,6.9,9.3,6.9c6,0,9.1-3,9.1-7C124.2,68.9,119.3,67.9,117.7,67.5z"/>
	</g>
	<path class="st1" d="M104.8,77.7l-2-22.8c-0.1-0.9-0.9-1.6-1.8-1.5L66,56.5c-0.9,0.1-1.6,0.9-1.5,1.8l2,22.8
		c0.1,0.9,0.9,1.6,1.8,1.5l35.1-3.1C104.3,79.4,104.9,78.6,104.8,77.7z M102.5,64.2l0.4,4.8c0,0.1-0.1,0.2-0.2,0.2
		c-0.1,0-0.2-0.1-0.2-0.2l-0.4-4.8c0-0.1,0.1-0.2,0.2-0.2C102.4,64,102.5,64.1,102.5,64.2z M68.9,80.2l-1.8-21.5l33.1-2.9l1.8,21.5
		L68.9,80.2z"/>
	<g>
		<path class="st1" d="M75.2,69c0.2,0.4,0.3,0.8,0.5,1.2L75.2,69z"/>
		<path class="st1" d="M97.1,68.6c1.2-4.6,1.4-10.3,1.4-10.5H94c0,0-0.2,6.4-1.6,10.4c-0.8,2.5-2,4.3-3.4,5.6
			C93.2,72.6,96.3,69.5,97.1,68.6z"/>
		<path class="st1" d="M83.9,80.5c-0.2,0-0.4,0-0.6,0C83.6,80.5,83.8,80.5,83.9,80.5z"/>
		<path class="st1" d="M80,79.9c1,0.3,2.1,0.5,3.3,0.5C82.2,80.4,81.1,80.2,80,79.9L80,79.9z"/>
		<path class="st0" d="M75.1,68.6l0.2,0.4C75.2,68.8,75.1,68.7,75.1,68.6c-1.5-4.1-1.6-8.2-1.6-8.3l-4.6,0.1c0,0.2,0.1,4.9,1.8,9.7
			c1.9,5.3,5.1,8.6,9.3,9.9l-4.1-9.4C75.6,69.9,75.3,69.3,75.1,68.6z"/>
		<path class="st0" d="M83.4,80.5C83.4,80.5,83.3,80.5,83.4,80.5C83.3,80.5,83.4,80.5,83.4,80.5z"/>
		<path class="st0" d="M83.9,75.9C83.9,75.9,83.9,75.9,83.9,75.9L83.9,75.9C83.9,75.8,83.9,75.8,83.9,75.9c-3.7,0-6.4-1.9-8.2-5.8
			l0.2,0.4C77.7,74.1,80.4,75.9,83.9,75.9z"/>
		<path class="st0" d="M83.9,76l0-0.1c0,0,0,0,0,0c-3.5,0-6.2-1.8-8-5.4l4.1,9.4c1,0.3,2.1,0.5,3.3,0.5c0,0,0,0,0.1,0
			c0.2,0,0.4,0,0.6,0c5.8,0,10.1-3.3,12.5-9.7c-2.3,2.1-6.6,5.2-12,5.2C84.3,76,84.1,76,83.9,76z"/>
		<path class="st0" d="M75.9,70.5l-0.2-0.4c-0.2-0.4-0.3-0.8-0.5-1.2l-0.2-0.4C75.3,69.3,75.6,69.9,75.9,70.5z"/>
		<path class="st0" d="M85.6,75.7c-1,0.1-1.6,0.1-1.7,0.1l0,0C84.5,75.9,85.1,75.8,85.6,75.7z"/>
		<path class="st0" d="M85.6,75.7c-0.5,0.1-1.1,0.2-1.7,0.2l0,0.1c0.2,0,0.3,0,0.5,0c5.4,0,9.7-3.1,12-5.2c0.1-0.2,0.2-0.5,0.3-0.7
			C92.5,74.2,88,75.4,85.6,75.7z"/>
	</g>
</g>
<g>
	<path class="st2" d="M40.1,13.6c-2.1-2.2-4.7-3.3-7.7-3.5c-3.1-0.1-5.9,1-8.1,3.2c-2.2,2.2-3.4,4.9-3.4,8c0,3,1.1,5.6,3.1,7.7
		c2,2.1,4.6,3.3,7.6,3.4c0.1,0,0.3,0,0.4,0c2.6,0,5-0.9,6.9-2.6v2.6h4.1V21.3C43.3,18.3,42.3,15.7,40.1,13.6z M39,21.1
		c0,2-0.6,3.8-2.1,5.3c-1.3,1.4-2.9,2.1-4.7,2.1c-0.1,0-0.2,0-0.3,0c-1.9-0.1-3.5-0.8-4.8-2.2c-1.3-1.4-1.9-3.1-1.9-5
		c0-1.9,0.7-3.6,2.1-4.9c1.4-1.4,3-2,5-2c1.9,0,3.4,0.7,4.7,2C38.3,17.6,39,19.2,39,21.1z"/>
	<path class="st2" d="M60.8,12.9c-1.8-1.9-3.9-2.8-6.5-2.8c-2.6,0-4.8,1-6.6,2.8c-1.7,1.9-2.6,4.2-2.6,7v12.6h4V19.6
		c0-1.5,0.5-2.8,1.6-3.8c1-1.1,2.3-1.6,3.7-1.6c1.4,0,2.6,0.5,3.6,1.6c1.1,1.1,1.6,2.4,1.6,3.8v12.9h4V19.9
		C63.4,17.1,62.5,14.8,60.8,12.9z"/>
	<g>
		<path class="st2" d="M12.7,19.5c-5.5-1.3-6.5-1.7-6.5-3.3c0-1.8,1.8-2.5,3.3-2.5c1.5,0,3.8,0.1,4.3,2.6h4.6
			c-0.4-4.5-4.4-6.3-8.8-6.3c-3.9,0-8.2,2.1-8.2,6.6c0,8.1,13.1,5.1,13.1,9.8c0,2.2-2.6,2.7-4.3,2.7c-1.8,0-4.3-0.4-4.9-3.2H0.8
			c0.4,4.8,4.6,7,9.3,7c6,0,9.1-3,9.1-7C19.2,20.9,14.4,19.9,12.7,19.5z"/>
	</g>
	<g>
		<path class="st2" d="M117.7,19.5c-5.5-1.3-6.5-1.7-6.5-3.3c0-1.8,1.8-2.5,3.3-2.5c1.5,0,3.8,0.1,4.3,2.6h4.6
			c-0.4-4.5-4.4-6.3-8.8-6.3c-4,0-8.2,2.1-8.2,6.6c0,8.1,13.1,5.1,13.1,9.8c0,2.2-2.6,2.7-4.3,2.7c-1.8,0-4.3-0.4-4.8-3.2h-4.6
			c0.4,4.8,4.6,7,9.3,7c6,0,9.1-3,9.1-7C124.2,20.9,119.3,19.9,117.7,19.5z"/>
	</g>
	<path class="st1" d="M104.8,29.7l-2-22.8c-0.1-0.9-0.9-1.6-1.8-1.5L65.9,8.5c-0.9,0.1-1.6,0.9-1.5,1.8l2,22.8
		c0.1,0.9,0.9,1.6,1.8,1.5l35.2-3.1C104.2,31.4,104.9,30.6,104.8,29.7z M102.5,16.2l0.4,4.8c0,0.1-0.1,0.2-0.2,0.2
		c-0.1,0-0.2-0.1-0.2-0.2l-0.4-4.8c0-0.1,0.1-0.2,0.2-0.2C102.4,16,102.5,16.1,102.5,16.2z M68.8,32.2L67,10.7l33.2-2.9l1.8,21.6
		L68.8,32.2z"/>
	<g>
		<path class="st1" d="M75.1,21c0.2,0.4,0.3,0.8,0.5,1.2L75.1,21z"/>
		<path class="st1" d="M97.1,20.6c1.2-4.6,1.4-10.3,1.4-10.5h-4.6c0,0-0.2,6.4-1.6,10.5c-0.9,2.5-2,4.3-3.4,5.6
			C93.2,24.6,96.2,21.5,97.1,20.6z"/>
		<path class="st1" d="M83.9,32.5c-0.2,0-0.4,0-0.6,0C83.5,32.5,83.7,32.5,83.9,32.5z"/>
		<path class="st1" d="M79.9,32c1,0.3,2.2,0.5,3.3,0.5C82.1,32.4,81,32.3,79.9,32L79.9,32z"/>
		<path class="st2" d="M75,20.6l0.2,0.4C75.1,20.8,75,20.7,75,20.6c-1.5-4.1-1.6-8.2-1.6-8.3l-4.6,0.1c0,0.2,0.1,4.9,1.8,9.7
			c1.9,5.3,5.1,8.6,9.3,9.9l-4.1-9.4C75.5,21.9,75.2,21.3,75,20.6z"/>
		<path class="st2" d="M83.3,32.5C83.3,32.5,83.3,32.5,83.3,32.5C83.3,32.5,83.3,32.5,83.3,32.5z"/>
		<path class="st2" d="M83.9,27.9C83.9,27.9,83.9,27.9,83.9,27.9L83.9,27.9C83.9,27.8,83.9,27.8,83.9,27.9c-3.7,0-6.4-1.9-8.2-5.8
			l0.2,0.4C77.7,26.1,80.3,27.9,83.9,27.9z"/>
		<path class="st2" d="M83.9,28l0-0.1c0,0,0,0,0,0c-3.6,0-6.2-1.8-8-5.4l4.1,9.4c1,0.3,2.1,0.5,3.3,0.5c0,0,0,0,0.1,0
			c0.2,0,0.4,0,0.6,0c5.8,0,10.1-3.3,12.5-9.7c-2.3,2.1-6.7,5.2-12,5.2C84.2,28,84,28,83.9,28z"/>
		<path class="st2" d="M75.8,22.5l-0.2-0.4c-0.2-0.4-0.3-0.8-0.5-1.2L75,20.6C75.2,21.3,75.5,21.9,75.8,22.5z"/>
		<path class="st2" d="M85.6,27.7c-1,0.1-1.6,0.1-1.7,0.1l0,0C84.5,27.9,85,27.8,85.6,27.7z"/>
		<path class="st2" d="M85.6,27.7c-0.5,0.1-1.1,0.2-1.7,0.2l0,0.1c0.2,0,0.3,0,0.5,0c5.4,0,9.7-3.1,12-5.2c0.1-0.2,0.2-0.5,0.3-0.8
			C92.5,26.3,87.9,27.4,85.6,27.7z"/>
	</g>
</g>
</svg>
